<?xml version="1.0" standalone="no"?><!DOCTYPE svg PUBLIC "-//W3C//DTD SVG 1.1//EN" "http://www.w3.org/Graphics/SVG/1.1/DTD/svg11.dtd"><svg t="1610069317862" class="icon" viewBox="0 0 4270 1024" version="1.1" xmlns="http://www.w3.org/2000/svg" p-id="3054" xmlns:xlink="http://www.w3.org/1999/xlink" width="833.984375" height="200"><defs><style type="text/css"></style></defs><path d="M0 229.253731h2549.301493v611.343284H0z" fill="#2A5082" p-id="3055"></path><path d="M420.909851 943.608358L50.130149 572.828657c-2.445373-2.445373-2.445373-6.113433 0-8.558806L420.909851 193.490149c2.445373-2.445373 6.113433-2.445373 8.558806 0l370.779701 370.779702c2.445373 2.445373 2.445373 6.113433 0 8.558806L429.468657 943.608358c-2.445373 2.445373-6.113433 2.445373-8.558806 0zM2129.92 1022.16597L1779.008955 671.254925c-2.445373-2.445373-2.445373-6.113433 0-8.558806L2125.640597 316.064478c2.445373-2.445373 6.113433-2.445373 8.558806 0L2485.110448 666.975522c2.445373 2.445373 2.445373 6.113433 0 8.558806L2138.478806 1022.16597c-2.139701 2.445373-6.113433 2.445373-8.558806 0z" fill="#A3D4FF" opacity=".45" p-id="3056"></path><path d="M2273.585672 423.049552l-156.809553-156.809552c-2.445373-2.445373-2.445373-6.113433 0-8.558806l154.975523-154.975522c2.445373-2.445373 6.113433-2.445373 8.558806 0l156.809552 156.809552c2.445373 2.445373 2.445373 6.113433 0 8.558806l-154.975522 154.975522c-2.139701 2.445373-6.113433 2.445373-8.558806 0zM213.358806 322.17791L56.549254 165.368358c-2.445373-2.445373-2.445373-6.113433 0-8.558806l154.975522-154.975522c2.445373-2.445373 6.113433-2.445373 8.558806 0l156.809552 156.809552c2.445373 2.445373 2.445373 6.113433 0 8.558806L221.917612 322.17791c-2.139701 2.445373-6.113433 2.445373-8.558806 0z" fill="#E9EAEB" opacity=".33" p-id="3057"></path><path d="M1617.458436 657.18486L2012.777457 261.862782l2.161098 2.161099-395.319021 395.322077z" fill="#E9EAEB" opacity=".33" p-id="3058"></path><path d="M1379.789564 994.166448l395.322078-395.325135 4.322197 4.325254L1384.111761 998.488645z" fill="#E9EAEB" opacity=".33" p-id="3059"></path><path d="M811.365636 425.892299L1206.684657 30.567164l2.164155 2.161099-395.325134 395.322077z" fill="#E9EAEB" opacity=".33" p-id="3060"></path><path d="M1334.776358 791.487809L1655.095785 471.162269l2.161099 2.161098-320.319427 320.322484z" fill="#E9EAEB" opacity=".33" p-id="3061"></path></svg>