<?xml version="1.0" standalone="no"?><!DOCTYPE svg PUBLIC "-//W3C//DTD SVG 1.1//EN" "http://www.w3.org/Graphics/SVG/1.1/DTD/svg11.dtd"><svg t="1611128031631" class="icon" viewBox="0 0 1837 1024" version="1.1" xmlns="http://www.w3.org/2000/svg" p-id="23574" xmlns:xlink="http://www.w3.org/1999/xlink" width="358.7890625" height="200"><defs><style type="text/css"></style></defs><path d="M0 0h1325.176471v1024H0zM1325.176471 512v512c282.774588 0 512-229.225412 512-512S1607.951059 0 1325.176471 0v512z" fill="#588EF5" opacity=".205" p-id="23575"></path><path d="MNaN NaNLNaN NaNCNaN NaN NaN NaN NaN NaNlNaN NaNcNaN NaN NaN NaN NaN NaNlNaN NaN NaN NaNcNaN NaN NaN NaN NaN NaNLNaN NaNCNaN NaN NaN NaN NaN NaNz" fill="#1767FB" p-id="23576"></path><path d="M804.412235 367.435294h-118.964706c-13.552941 0-24.877176 10.661647-24.877176 24.094118 0 13.432471 10.992941 24.094118 24.847059 24.094117h118.964706c13.522824 0 24.847059-10.661647 24.847058-24.094117 0-13.432471-10.962824-24.094118-24.816941-24.094118z" fill="#D9E9FF" p-id="23577"></path><path d="M600.636235 536.094118h204.197647a24.064 24.064 0 1 0 0-48.188236h-204.197647c-13.251765 0-24.395294 10.661647-24.395294 24.094118a24.094118 24.094118 0 0 0 24.395294 24.094118z" fill="#FFFFFF" p-id="23578"></path></svg>